<svg width="500" height="500" viewBox="0 0 500 500" fill="none" xmlns="http://www.w3.org/2000/svg">
<path fill-rule="evenodd" clip-rule="evenodd" d="M250 500C388.071 500 500 388.071 500 250C500 111.929 388.071 0 250 0C111.929 0 0 111.929 0 250C0 388.071 111.929 500 250 500ZM238.625 326.25H139.557L218.922 250.492C231.842 237.665 238.364 221.431 238.486 201.791L238.486 201.766L238.486 201.652H238.483C237.992 182.012 231.334 165.732 218.506 152.812C205.279 139.215 188.814 132.416 169.111 132.416C150.149 132.324 133.961 138.938 120.549 152.257C107.229 165.3 100.338 181.811 99.875 201.791H127.348C127.162 189.674 131.233 179.637 139.557 171.682C147.882 163.542 157.734 159.657 169.111 160.027C181.044 159.75 191.034 163.635 199.081 171.682C207.189 179.975 211.121 189.965 210.878 201.652H210.875L210.877 201.693L210.875 201.791H210.882C211.493 213.479 207.744 223.469 199.636 231.761L99.875 326.25V354H238.625V326.25ZM400.685 326.25H301.617L380.982 250.492C393.902 237.665 400.424 221.431 400.546 201.791L400.546 201.766L400.546 201.652H400.543C400.052 182.012 393.394 165.732 380.566 152.812C367.339 139.215 350.874 132.416 331.171 132.416C312.209 132.324 296.021 138.938 282.609 152.257C269.289 165.3 262.397 181.811 261.935 201.791H289.407C289.223 189.674 293.292 179.637 301.617 171.682C309.943 163.542 319.794 159.657 331.171 160.027C343.104 159.75 353.094 163.635 361.141 171.682C369.249 179.975 373.181 189.965 372.938 201.652H372.935L372.937 201.693L372.935 201.791H372.943C373.553 213.479 369.804 223.469 361.696 231.761L261.935 326.25V354H400.685V326.25Z" fill="white"/>
</svg>
